<?xml version="1.0" encoding="utf-8"?>
<!-- Generator: Adobe Illustrator 27.8.1, SVG Export Plug-In . SVG Version: 6.00 Build 0)  -->
<svg version="1.1" id="Layer_1" xmlns="http://www.w3.org/2000/svg" xmlns:xlink="http://www.w3.org/1999/xlink" x="0px" y="0px"
	 viewBox="0 0 288 288" style="enable-background:new 0 0 288 288;" xml:space="preserve">
<style type="text/css">
	.st0{fill:#888F95;}
	.st1{fill:none;}
	.st2{fill:#95AEBF;}
	.st3{font-family:'LindseySignature';}
	.st4{font-size:48px;}
	.st5{fill:#B56E29;}
	.st6{font-family:'OwnersXNarrow-XLight';}
	.st7{font-size:61.4315px;}
	.st8{letter-spacing:5.88;}
	.st9{fill:#658293;}
</style>
<path class="st0" d="M25.02,113.26"/>
<rect x="0.52" y="94.69" class="st1" width="286.97" height="112.73"/>
<text transform="matrix(0.99 0 0 1.21 42.9746 126.7169)" class="st2 st3 st4">White Water</text>
<rect x="38.94" y="151.05" class="st1" width="228" height="81.91"/>
<text transform="matrix(1.5315 0 0 1.33 38.9688 201.002)" class="st5 st6 st7 st8">Rafting </text>
<g>
	<path class="st2" d="M30.77,210.69l226.47-1.33L30.77,210.69z"/>
	<path class="st9" d="M30.77,210.59l226.46-2.03l0.01,1.6l-28.31,0.35C166.61,210.85,92.63,211.66,30.77,210.59L30.77,210.59z
		 M30.77,210.59c62.35-1.22,135.72-1.85,198.15-2.04c0,0,28.31,0.01,28.31,0.01l0.01,1.6C257.2,209.96,30.4,211.17,30.77,210.59
		L30.77,210.59z"/>
</g>
<g>
	<path class="st2" d="M251.48,67.88L25.02,69.65L251.48,67.88z"/>
	<path class="st9" d="M251.48,67.98L25.02,70.45l-0.01-1.6l28.31-0.4C115.64,67.98,189.62,67.02,251.48,67.98L251.48,67.98z
		 M251.48,67.98c-62.35,1.35-135.72,2.12-198.15,2.43c0,0-28.31,0.04-28.31,0.04l-0.01-1.6C25.05,69.05,251.85,67.4,251.48,67.98
		L251.48,67.98z"/>
</g>
</svg>
